<?xml version="1.0" encoding="utf-8"?>
<!-- Generator: Adobe Illustrator 16.0.0, SVG Export Plug-In . SVG Version: 6.00 Build 0)  -->
<!DOCTYPE svg PUBLIC "-//W3C//DTD SVG 1.1//EN" "http://www.w3.org/Graphics/SVG/1.1/DTD/svg11.dtd">
<svg version="1.1" id="Слой_1" xmlns="http://www.w3.org/2000/svg" xmlns:xlink="http://www.w3.org/1999/xlink" x="0px" y="0px"
	 width="272.833px" height="238.667px" viewBox="0 0 272.833 238.667" enable-background="new 0 0 272.833 238.667"
	 xml:space="preserve">
<text transform="matrix(1 0 0 1 -1 237.3506)"><tspan x="0" y="0" fill="#2A456C" font-family="'FrutigerLT-Black'" font-size="50.0042" letter-spacing="-1">EI</tspan><tspan x="34.052" y="0" fill="#2A456C" font-family="'FrutigerLT-Black'" font-size="50.0042" letter-spacing="-4">T</tspan><tspan x="54.003" y="0" fill="#2A456C" font-family="'FrutigerLT-Black'" font-size="50.0042" letter-spacing="-1">AN PE</tspan><tspan x="173.062" y="0" fill="#2A456C" font-family="'FrutigerLT-Black'" font-size="50.0042" letter-spacing="-1">R</tspan><tspan x="198.764" y="0" fill="#2A456C" font-family="'FrutigerLT-Black'" font-size="50.0042" letter-spacing="-1">ET</tspan><tspan x="245.717" y="0" fill="#2A456C" font-family="'FrutigerLT-Black'" font-size="50.0042">Z</tspan></text>
<path fill="#2A456C" d="M247.324,118.811h-91.086L201.778,3.708L247.324,118.811z M160.264,116.074h83.033l-41.52-104.923
	L160.264,116.074z"/>
<polygon fill="#2A456C" points="213.658,114.214 190.016,114.214 190.016,56.625 213.658,47.044 "/>
<path fill="#FFFFFF" d="M214.001,114.556h-24.328V56.394l24.328-9.857V114.556z M190.358,113.872h22.958V47.552l-22.958,9.303
	V113.872z"/>
<polygon fill="#6391BA" points="225.205,114.214 213.785,114.214 213.785,46.553 225.205,57.756 "/>
<path fill="#FFFFFF" d="M225.546,114.556h-12.103V45.737l12.103,11.877V114.556z M214.127,113.872h10.736V57.901l-10.736-10.533
	V113.872z"/>
<polygon fill="#FFFFFF" points="190.016,56.625 190.016,56.709 190.208,56.93 213.658,47.438 213.658,47.044 "/>
<polygon fill="#FFFFFF" points="190.016,61.813 190.016,62.45 213.658,53.949 213.658,53.308 "/>
<polygon fill="#FFFFFF" points="190.016,67.238 190.016,67.915 213.658,60.451 213.658,59.772 "/>
<polygon fill="#FFFFFF" points="190.016,72.692 190.016,73.41 213.658,66.956 213.658,66.236 "/>
<polygon fill="#FFFFFF" points="190.016,78.168 190.016,78.925 213.658,73.461 213.658,72.704 "/>
<polygon fill="#FFFFFF" points="190.016,83.67 190.016,84.466 213.658,79.969 213.658,79.169 "/>
<polygon fill="#FFFFFF" points="190.016,89.194 190.016,90.031 213.658,86.474 213.658,85.635 "/>
<polygon fill="#FFFFFF" points="190.016,94.738 190.016,95.619 213.658,92.983 213.658,92.102 "/>
<polygon fill="#FFFFFF" points="190.016,100.302 190.016,101.231 213.658,99.495 213.658,98.566 "/>
<polygon fill="#FFFFFF" points="190.016,105.889 190.016,106.864 213.658,106.006 213.658,105.031 "/>
<rect x="190.017" y="111.491" fill="#FFFFFF" width="23.642" height="1.024"/>
<polygon fill="#FFFFFF" points="213.785,46.555 213.785,47.049 224.976,57.927 225.205,57.76 225.205,57.756 213.785,46.554 "/>
<polygon fill="#FFFFFF" points="213.785,53.126 213.785,53.569 224.959,63.379 225.205,63.184 225.205,62.776 214.008,52.949 "/>
<polygon fill="#FFFFFF" points="213.785,59.702 213.785,60.084 224.951,68.832 225.205,68.606 225.205,68.185 214.058,59.457 "/>
<polygon fill="#FFFFFF" points="213.785,66.289 213.785,66.61 224.951,74.289 225.205,74.03 225.205,73.601 214.101,65.965 "/>
<polygon fill="#FFFFFF" points="213.785,72.887 213.785,73.14 224.959,79.749 225.205,79.458 225.205,79.019 214.135,72.471 "/>
<polygon fill="#FFFFFF" points="213.785,79.521 213.785,79.673 224.971,85.211 225.205,84.881 225.205,84.436 214.17,78.972 "/>
<polygon fill="#FFFFFF" points="213.785,86.188 213.785,86.218 224.996,90.678 225.205,90.307 225.205,89.854 214.188,85.471 "/>
<polygon fill="#FFFFFF" points="213.843,92.793 225.031,96.143 225.205,95.729 225.205,95.268 214.193,91.972 "/>
<polygon fill="#FFFFFF" points="213.934,99.373 225.077,101.604 225.205,101.15 225.205,100.683 214.188,98.477 "/>
<polygon fill="#FFFFFF" points="214.037,105.949 225.134,107.063 225.205,106.579 225.205,106.091 214.173,104.98 "/>
<rect x="214.148" y="111.491" fill="#FFFFFF" width="11.055" height="1.024"/>
<rect x="213.294" y="47.044" fill="#FFFFFF" width="0.976" height="67.367"/>
<path fill="#2A456C" d="M119.801,118.811H28.183L73.991,3.037L119.801,118.811z M32.209,116.074h83.564L73.991,10.478
	L32.209,116.074z"/>
<rect x="86.82" y="114.605" fill="#E7E6E6" width="24.095" height="1.041"/>
<rect x="73.544" y="114.605" fill="#E7E6E6" width="13.219" height="1.041"/>
<rect x="54.502" y="114.619" fill="#E7E6E6" width="19.503" height="1.027"/>
<rect x="43.823" y="114.619" fill="#FFFFFF" width="11.056" height="1.027"/>
<polygon fill="#6391BA" points="64.32,112.854 86.174,112.854 86.174,60.479 64.32,51.769 "/>
<path fill="#FFFFFF" d="M86.516,113.196H63.978V51.264l22.538,8.984V113.196z M64.662,112.511h21.171v-51.8l-21.171-8.437V112.511z"
	/>
<polygon fill="#2A456C" points="53.648,112.854 64.206,112.854 64.206,51.322 53.648,61.512 "/>
<path fill="#FFFFFF" d="M64.548,113.196H53.306v-51.83l11.242-10.852V113.196z M53.991,112.511h9.872V52.128l-9.872,9.529V112.511z"
	/>
<polygon fill="#FFFFFF" points="85.996,60.76 63.725,51.893 64.079,51.492 86.351,60.359 "/>
<polygon fill="#FFFFFF" points="86.273,65.814 63.72,57.835 64.083,57.38 86.634,65.36 "/>
<polygon fill="#FFFFFF" points="86.556,70.868 63.73,63.777 64.079,63.269 86.909,70.362 "/>
<polygon fill="#FFFFFF" points="86.842,75.924 63.733,69.718 64.071,69.155 87.183,75.363 "/>
<polygon fill="#FFFFFF" points="87.137,80.982 63.745,75.662 64.059,75.044 87.45,80.364 "/>
<polygon fill="#FFFFFF" points="87.431,86.037 63.759,81.604 64.045,80.933 87.715,85.364 "/>
<polygon fill="#FFFFFF" points="87.732,91.092 63.779,87.548 64.021,86.818 87.973,90.366 "/>
<polygon fill="#ECECED" points="88.035,96.147 63.806,93.49 63.999,92.708 88.229,95.366 "/>
<polygon fill="#EBEAEB" points="88.345,101.204 63.833,99.431 63.97,98.596 88.479,100.369 "/>
<polygon fill="#E8E8E9" points="88.661,106.257 63.867,105.373 63.938,104.487 88.729,105.374 "/>
<rect x="63.902" y="110.378" fill="#E7E6E6" width="25.072" height="0.931"/>
<polygon fill="#FFFFFF" points="53.858,61.666 53.434,61.359 64.048,51.211 64.474,51.518 "/>
<polygon fill="#FFFFFF" points="53.875,66.625 53.423,66.269 63.997,57.138 64.448,57.492 "/>
<polygon fill="#FFFFFF" points="53.882,71.582 53.416,71.175 63.951,63.056 64.414,63.465 "/>
<polygon fill="#FFFFFF" points="53.882,76.546 53.416,76.077 63.912,68.975 64.376,69.445 "/>
<polygon fill="#FFFFFF" points="53.875,81.51 53.419,80.978 63.879,74.892 64.336,75.424 "/>
<polygon fill="#FFFFFF" points="53.862,86.479 53.434,85.879 63.848,80.802 64.28,81.406 "/>
<polygon fill="#FFFFFF" points="53.841,91.448 53.454,90.774 63.831,86.714 64.216,87.389 "/>
<polygon fill="#ECECED" points="53.806,96.417 53.489,95.671 63.825,92.625 64.148,93.371 "/>
<polygon fill="#EBEAEB" points="53.766,101.386 53.531,100.57 63.831,98.54 64.063,99.356 "/>
<polygon fill="#E8E8E9" points="53.713,106.351 53.582,105.472 63.844,104.456 63.972,105.335 "/>
<rect x="53.648" y="110.378" fill="#E7E6E6" width="10.219" height="0.931"/>
<polygon fill="#6391BA" points="84.429,115.126 106.28,115.126 106.28,82.361 84.429,75.816 "/>
<path fill="#FFFFFF" d="M106.622,115.469H84.085V75.356l22.537,6.749V115.469z M84.77,114.785h21.167V82.616l-21.167-6.34V114.785z"
	/>
<polygon fill="#2A456C" points="72.151,115.126 84.425,115.126 84.145,75.553 72.151,82.54 "/>
<path fill="#FFFFFF" d="M84.77,115.469H71.809V82.342l12.674-7.382L84.77,115.469z M72.493,114.785H84.08l-0.273-38.64
	l-11.313,6.592V114.785z"/>
<polygon fill="#FFFFFF" points="106.138,82.375 83.874,75.987 84.145,75.553 106.414,81.942 "/>
<polygon fill="#FFFFFF" points="106.138,87.913 83.874,82.589 84.14,82.068 106.414,87.391 "/>
<polygon fill="#FFFFFF" points="106.152,93.449 83.882,89.192 84.134,88.585 106.403,92.845 "/>
<polygon fill="#FFFFFF" points="106.167,98.99 83.896,95.795 84.115,95.102 106.387,98.296 "/>
<polygon fill="#FFFFFF" points="106.196,104.526 83.922,102.399 84.094,101.615 106.359,103.747 "/>
<polygon fill="#FFFFFF" points="106.229,110.063 83.96,108.999 84.056,108.135 106.321,109.202 "/>
<polygon fill="#FFFFFF" points="72.01,83.013 71.463,82.67 83.684,75.599 84.222,75.94 "/>
<polygon fill="#FFFFFF" points="72.021,88.438 71.448,88.006 83.671,82.113 84.245,82.545 "/>
<polygon fill="#FFFFFF" points="72.021,93.871 71.455,93.336 83.671,88.623 84.233,89.155 "/>
<polygon fill="#FFFFFF" points="71.988,99.304 71.483,98.666 83.7,95.128 84.208,95.767 "/>
<polygon fill="#FFFFFF" points="71.938,104.74 71.538,103.987 83.757,101.631 84.152,102.382 "/>
<polygon fill="#FFFFFF" points="71.849,110.175 71.622,109.317 83.84,108.14 84.071,108.995 "/>
<polygon fill="#6391BA" points="54.476,115.132 72.161,115.132 72.161,93.101 54.476,89.601 "/>
<path fill="#FFFFFF" d="M72.502,115.475H54.134V89.186l18.368,3.633V115.475z M54.818,114.79h17V93.384l-17-3.367V114.79z"/>
<polygon fill="#2A456C" points="44.261,115.132 54.475,115.132 54.475,89.601 44.261,93.743 "/>
<path fill="#FFFFFF" d="M54.818,115.475H43.919V93.512l10.898-4.419V115.475z M44.604,114.79h9.529V90.109l-9.529,3.865V114.79z"/>
<polygon fill="#FFFFFF" points="72.085,93.641 54.403,89.829 54.544,89.374 72.229,93.193 "/>
<polygon fill="#FFFFFF" points="72.091,99.132 54.322,96.267 54.456,95.698 72.224,98.561 "/>
<polygon fill="#FFFFFF" points="72.104,104.621 54.251,102.713 54.357,102.02 72.21,103.929 "/>
<polygon fill="#FFFFFF" points="72.123,110.11 54.189,109.157 54.252,108.344 72.191,109.298 "/>
<polygon fill="#FFFFFF" points="44.033,93.909 43.796,93.486 54.354,89.391 54.593,89.813 "/>
<polygon fill="#FFFFFF" points="44.121,99.331 43.883,98.784 54.357,95.709 54.593,96.259 "/>
<polygon fill="#FFFFFF" points="44.191,104.756 43.987,104.075 54.378,102.024 54.576,102.707 "/>
<polygon fill="#FFFFFF" points="44.238,110.179 44.116,109.37 54.418,108.346 54.538,109.153 "/>
<polygon fill="#FFFFFF" points="84.492,115.126 83.521,115.126 83.743,75.54 84.492,75.599 "/>
<g>
	<defs>
		<rect id="SVGID_1_" x="336.875" y="-9" width="441.667" height="323.89"/>
	</defs>
	<clipPath id="SVGID_2_">
		<use xlink:href="#SVGID_1_"  overflow="visible"/>
	</clipPath>
</g>
<path fill="#FFFFFF" d="M54.476,115.046c-0.25,0-0.456-0.166-0.456-0.372V89.766c0-0.206,0.207-0.371,0.456-0.371
	c0.245,0,0.445,0.165,0.445,0.371v24.908C54.921,114.88,54.721,115.046,54.476,115.046"/>
<rect x="63.753" y="51.769" fill="#FFFFFF" width="0.904" height="39.725"/>
<path fill="#2A456C" d="M28.546,116.017c4.339,12.459,23.192,21.836,45.796,21.836c22.603,0,41.458-9.377,45.798-21.836H28.546z"/>
<path fill="#FFFFFF" d="M74.342,139.907c-23.345,0-42.975-9.547-47.736-23.214l-0.951-2.729h97.373l-0.948,2.729
	C117.318,130.36,97.69,139.907,74.342,139.907 M31.717,118.071c5.81,10.422,23.011,17.727,42.625,17.727
	c19.615,0,36.817-7.305,42.628-17.727H31.717z"/>
<rect x="171.639" y="117.428" fill="#E7E6E6" width="24.095" height="1.039"/>
<rect x="195.79" y="117.428" fill="#E7E6E6" width="13.218" height="1.039"/>
<rect x="208.549" y="117.441" fill="#E7E6E6" width="19.504" height="1.025"/>
<rect x="227.675" y="117.441" fill="#E7E6E6" width="11.055" height="1.025"/>
<polygon fill="#6391BA" points="207.103,118.071 196.057,118.071 196.057,88.685 207.103,93.453 "/>
<path fill="#FFFFFF" d="M207.445,118.414h-11.73V88.166l11.73,5.063V118.414z M196.399,117.729h10.36v-24.05l-10.36-4.472V117.729z"
	/>
<polygon fill="#2A456C" points="196.053,118.071 176.922,118.071 176.922,92.715 196.053,88.685 "/>
<path fill="#FFFFFF" d="M196.396,118.414h-19.816V92.439l19.816-4.175V118.414z M177.264,117.729h18.449V89.107l-18.449,3.886
	V117.729z"/>
<polygon fill="#FFFFFF" points="177.002,93.335 196.132,88.948 195.979,88.426 176.847,92.819 "/>
<polygon fill="#FFFFFF" points="176.998,99.654 196.221,96.359 196.076,95.705 176.852,98.999 "/>
<polygon fill="#FFFFFF" points="176.983,105.973 196.298,103.777 196.182,102.98 176.869,105.176 "/>
<polygon fill="#FFFFFF" points="176.962,112.291 196.364,111.195 196.294,110.257 176.89,111.355 "/>
<polygon fill="#FFFFFF" points="207.35,93.646 207.609,93.156 196.188,88.445 195.925,88.929 "/>
<polygon fill="#FFFFFF" points="207.259,99.884 207.515,99.254 196.182,95.715 195.925,96.349 "/>
<polygon fill="#FFFFFF" points="207.18,106.128 207.399,105.344 196.158,102.986 195.944,103.769 "/>
<polygon fill="#FFFFFF" points="207.129,112.369 207.26,111.438 196.116,110.259 195.984,111.19 "/>
<path fill="#FFFFFF" d="M196.053,117.972c0.272,0,0.493-0.19,0.493-0.428V88.878c0-0.238-0.221-0.427-0.493-0.427
	c-0.263,0-0.482,0.189-0.482,0.427v28.666C195.571,117.782,195.79,117.972,196.053,117.972"/>
<path fill="#2A456C" d="M156.605,116.017c4.338,12.459,23.194,21.836,45.797,21.836c22.602,0,41.457-9.377,45.795-21.836H156.605z"
	/>
<path fill="#FFFFFF" d="M202.402,139.907c-23.347,0-42.978-9.547-47.736-23.215l-0.95-2.729h97.372l-0.95,2.729
	C245.376,130.36,225.747,139.907,202.402,139.907 M159.775,118.071c5.81,10.422,23.012,17.727,42.627,17.727
	c19.612,0,36.813-7.305,42.625-17.727H159.775z"/>
<line fill="#FFFFFF" x1="73.991" y1="7.43" x2="202.396" y2="7.43"/>
<rect x="73.991" y="4.007" fill="#2A456C" width="128.405" height="6.845"/>
<line fill="#FFFFFF" x1="104.729" y1="169.109" x2="171.66" y2="169.109"/>
<rect x="104.729" y="165.002" fill="#2A456C" width="66.931" height="8.214"/>
<rect x="132.035" y="10.68" fill="#2A456C" width="12.322" height="154.282"/>
</svg>
