<?xml version="1.0" encoding="utf-8"?>
<!-- Generator: Adobe Illustrator 16.0.0, SVG Export Plug-In . SVG Version: 6.00 Build 0)  -->
<!DOCTYPE svg PUBLIC "-//W3C//DTD SVG 1.1//EN" "http://www.w3.org/Graphics/SVG/1.1/DTD/svg11.dtd">
<svg version="1.1" id="Слой_1" xmlns="http://www.w3.org/2000/svg" xmlns:xlink="http://www.w3.org/1999/xlink" x="0px" y="0px"
	 width="226.083px" height="52.999px" viewBox="0 0 226.083 52.999" enable-background="new 0 0 226.083 52.999"
	 xml:space="preserve">
<text transform="matrix(1 0 0 1 78.9741 35.8979)"><tspan x="0" y="0" fill="#2A456C" font-family="'FrutigerLT-Black'" font-size="26.9145">EI</tspan><tspan x="18.329" y="0" fill="#2A456C" font-family="'FrutigerLT-Black'" font-size="26.9145" letter-spacing="-2">T</tspan><tspan x="29.067" y="0" fill="#2A456C" font-family="'FrutigerLT-Black'" font-size="26.9145">AN PE</tspan><tspan x="93.149" y="0" fill="#2A456C" font-family="'FrutigerLT-Black'" font-size="26.9145">R</tspan><tspan x="106.983" y="0" fill="#2A456C" font-family="'FrutigerLT-Black'" font-size="26.9145">ET</tspan><tspan x="132.255" y="0" fill="#2A456C" font-family="'FrutigerLT-Black'" font-size="26.9145">Z</tspan></text>
<path fill="#2A456C" d="M69.023,35.898H41.041L55.032,0.539L69.023,35.898z M42.278,35.057h25.508L55.032,2.825L42.278,35.057z"/>
<polygon fill="#2A456C" points="58.681,34.486 51.418,34.486 51.418,16.794 58.681,13.851 "/>
<path fill="#FFFFFF" d="M58.787,34.591h-7.474V16.724l7.474-3.028V34.591z M51.523,34.381h7.053V14.007l-7.053,2.858V34.381z"/>
<polygon fill="#6391BA" points="62.229,34.486 58.72,34.486 58.72,13.7 62.229,17.142 "/>
<path fill="#FFFFFF" d="M62.333,34.591h-3.719V13.449l3.719,3.649V34.591z M58.825,34.381h3.298V17.187l-3.298-3.236V34.381z"/>
<polygon fill="#FFFFFF" points="51.418,16.794 51.418,16.82 51.477,16.888 58.681,13.972 58.681,13.851 "/>
<polygon fill="#FFFFFF" points="51.418,18.388 51.418,18.584 58.681,15.973 58.681,15.775 "/>
<polygon fill="#FFFFFF" points="51.418,20.055 51.418,20.263 58.681,17.969 58.681,17.761 "/>
<polygon fill="#FFFFFF" points="51.418,21.73 51.418,21.951 58.681,19.968 58.681,19.748 "/>
<polygon fill="#FFFFFF" points="51.418,23.413 51.418,23.645 58.681,21.967 58.681,21.734 "/>
<polygon fill="#FFFFFF" points="51.418,25.103 51.418,25.347 58.681,23.966 58.681,23.72 "/>
<polygon fill="#FFFFFF" points="51.418,26.8 51.418,27.056 58.681,25.964 58.681,25.707 "/>
<polygon fill="#FFFFFF" points="51.418,28.503 51.418,28.773 58.681,27.963 58.681,27.693 "/>
<polygon fill="#FFFFFF" points="51.418,30.212 51.418,30.498 58.681,29.964 58.681,29.679 "/>
<polygon fill="#FFFFFF" points="51.418,31.928 51.418,32.228 58.681,31.964 58.681,31.665 "/>
<rect x="51.418" y="33.649" fill="#FFFFFF" width="7.263" height="0.314"/>
<polygon fill="#FFFFFF" points="58.72,13.701 58.72,13.853 62.158,17.195 62.229,17.143 62.229,17.142 58.72,13.701 "/>
<polygon fill="#FFFFFF" points="58.72,15.72 58.72,15.856 62.153,18.869 62.229,18.809 62.229,18.684 58.789,15.665 "/>
<polygon fill="#FFFFFF" points="58.72,17.74 58.72,17.857 62.15,20.545 62.229,20.475 62.229,20.346 58.804,17.665 "/>
<polygon fill="#FFFFFF" points="58.72,19.764 58.72,19.862 62.15,22.221 62.229,22.142 62.229,22.009 58.817,19.664 "/>
<polygon fill="#FFFFFF" points="58.72,21.791 58.72,21.868 62.153,23.898 62.229,23.809 62.229,23.674 58.828,21.662 "/>
<polygon fill="#FFFFFF" points="58.72,23.828 58.72,23.875 62.157,25.576 62.229,25.475 62.229,25.338 58.838,23.659 "/>
<polygon fill="#FFFFFF" points="58.72,25.876 58.72,25.885 62.164,27.255 62.229,27.142 62.229,27.002 58.844,25.656 "/>
<polygon fill="#FFFFFF" points="58.738,27.906 62.175,28.935 62.229,28.808 62.229,28.666 58.846,27.653 "/>
<polygon fill="#FFFFFF" points="58.766,29.927 62.189,30.612 62.229,30.473 62.229,30.329 58.844,29.651 "/>
<polygon fill="#FFFFFF" points="58.797,31.947 62.207,32.29 62.229,32.141 62.229,31.99 58.839,31.649 "/>
<rect x="58.832" y="33.649" fill="#FFFFFF" width="3.396" height="0.314"/>
<rect x="58.569" y="13.851" fill="#FFFFFF" width="0.3" height="20.695"/>
<path fill="#2A456C" d="M29.848,35.898H1.703L15.775,0.332L29.848,35.898z M2.94,35.057h25.671L15.775,2.619L2.94,35.057z"/>
<rect x="19.716" y="34.606" fill="#E7E6E6" width="7.403" height="0.319"/>
<rect x="15.638" y="34.606" fill="#E7E6E6" width="4.061" height="0.319"/>
<rect x="9.788" y="34.61" fill="#E7E6E6" width="5.991" height="0.315"/>
<rect x="6.508" y="34.61" fill="#FFFFFF" width="3.396" height="0.315"/>
<polygon fill="#6391BA" points="12.804,34.068 19.518,34.068 19.518,17.979 12.804,15.303 "/>
<path fill="#FFFFFF" d="M19.623,34.173h-6.924V15.148l6.924,2.759V34.173z M12.909,33.963h6.503V18.05l-6.503-2.592V33.963z"/>
<polygon fill="#2A456C" points="9.526,34.068 12.769,34.068 12.769,15.166 9.526,18.296 "/>
<path fill="#FFFFFF" d="M12.875,34.173H9.421V18.25l3.454-3.333V34.173z M9.631,33.963h3.033v-18.55L9.631,18.34V33.963z"/>
<polygon fill="#FFFFFF" points="19.463,18.065 12.622,15.34 12.73,15.217 19.572,17.941 "/>
<polygon fill="#FFFFFF" points="19.548,19.617 12.62,17.167 12.731,17.026 19.659,19.478 "/>
<polygon fill="#FFFFFF" points="19.635,21.17 12.623,18.992 12.73,18.835 19.744,21.014 "/>
<polygon fill="#FFFFFF" points="19.723,22.723 12.624,20.817 12.728,20.644 19.828,22.551 "/>
<polygon fill="#FFFFFF" points="19.813,24.277 12.628,22.643 12.724,22.453 19.91,24.087 "/>
<polygon fill="#FFFFFF" points="19.904,25.83 12.632,24.468 12.72,24.262 19.991,25.624 "/>
<polygon fill="#FFFFFF" points="19.997,27.383 12.638,26.294 12.712,26.07 20.07,27.16 "/>
<polygon fill="#ECECED" points="20.089,28.936 12.646,28.119 12.706,27.878 20.149,28.696 "/>
<polygon fill="#EBEAEB" points="20.185,30.489 12.655,29.945 12.697,29.688 20.226,30.232 "/>
<polygon fill="#E8E8E9" points="20.282,32.042 12.665,31.77 12.687,31.498 20.303,31.771 "/>
<rect x="12.676" y="33.308" fill="#E7E6E6" width="7.702" height="0.286"/>
<polygon fill="#FFFFFF" points="9.591,18.343 9.46,18.249 12.721,15.132 12.852,15.225 "/>
<polygon fill="#FFFFFF" points="9.596,19.866 9.457,19.757 12.705,16.952 12.844,17.061 "/>
<polygon fill="#FFFFFF" points="9.598,21.389 9.455,21.264 12.691,18.77 12.833,18.896 "/>
<polygon fill="#FFFFFF" points="9.598,22.915 9.455,22.77 12.679,20.588 12.821,20.733 "/>
<polygon fill="#FFFFFF" points="9.596,24.439 9.456,24.275 12.669,22.406 12.809,22.57 "/>
<polygon fill="#FFFFFF" points="9.592,25.966 9.46,25.781 12.659,24.222 12.792,24.407 "/>
<polygon fill="#FFFFFF" points="9.585,27.492 9.466,27.285 12.654,26.038 12.772,26.245 "/>
<polygon fill="#ECECED" points="9.574,29.019 9.477,28.79 12.652,27.854 12.751,28.083 "/>
<polygon fill="#EBEAEB" points="9.562,30.545 9.49,30.294 12.654,29.671 12.726,29.921 "/>
<polygon fill="#E8E8E9" points="9.546,32.07 9.505,31.801 12.658,31.488 12.697,31.759 "/>
<rect x="9.526" y="33.308" fill="#E7E6E6" width="3.139" height="0.286"/>
<polygon fill="#6391BA" points="18.981,34.767 25.694,34.767 25.694,24.701 18.981,22.69 "/>
<path fill="#FFFFFF" d="M25.799,34.872h-6.923V22.549l6.923,2.073V34.872z M19.086,34.662h6.502v-9.882l-6.502-1.948V34.662z"/>
<polygon fill="#2A456C" points="15.21,34.767 18.98,34.767 18.894,22.609 15.21,24.755 "/>
<path fill="#FFFFFF" d="M19.086,34.872h-3.981V24.695l3.893-2.268L19.086,34.872z M15.315,34.662h3.56l-0.084-11.871l-3.476,2.025
	V34.662z"/>
<polygon fill="#FFFFFF" points="25.651,24.705 18.812,22.742 18.894,22.609 25.735,24.572 "/>
<polygon fill="#FFFFFF" points="25.651,26.406 18.812,24.771 18.893,24.61 25.735,26.246 "/>
<polygon fill="#FFFFFF" points="25.655,28.107 18.814,26.799 18.891,26.613 25.732,27.921 "/>
<polygon fill="#FFFFFF" points="25.66,29.809 18.818,28.828 18.885,28.615 25.727,29.596 "/>
<polygon fill="#FFFFFF" points="25.669,31.51 18.827,30.856 18.879,30.615 25.719,31.271 "/>
<polygon fill="#FFFFFF" points="25.679,33.21 18.838,32.883 18.867,32.618 25.707,32.946 "/>
<polygon fill="#FFFFFF" points="15.167,24.901 14.999,24.796 18.752,22.624 18.918,22.729 "/>
<polygon fill="#FFFFFF" points="15.17,26.567 14.994,26.435 18.749,24.625 18.925,24.757 "/>
<polygon fill="#FFFFFF" points="15.17,28.236 14.996,28.073 18.749,26.625 18.921,26.788 "/>
<polygon fill="#FFFFFF" points="15.16,29.906 15.005,29.709 18.758,28.623 18.914,28.819 "/>
<polygon fill="#FFFFFF" points="15.145,31.576 15.021,31.344 18.775,30.621 18.896,30.852 "/>
<polygon fill="#FFFFFF" points="15.117,33.245 15.047,32.981 18.801,32.62 18.872,32.882 "/>
<polygon fill="#6391BA" points="9.78,34.768 15.213,34.768 15.213,28 9.78,26.924 "/>
<path fill="#FFFFFF" d="M15.318,34.873H9.675v-8.075l5.643,1.116V34.873z M9.885,34.663h5.222v-6.576l-5.222-1.035V34.663z"/>
<polygon fill="#2A456C" points="6.642,34.768 9.78,34.768 9.78,26.924 6.642,28.197 "/>
<path fill="#FFFFFF" d="M9.885,34.873H6.537v-6.746l3.348-1.357V34.873z M6.748,34.663h2.927v-7.581l-2.927,1.187V34.663z"/>
<polygon fill="#FFFFFF" points="15.19,28.166 9.757,26.994 9.801,26.855 15.234,28.028 "/>
<polygon fill="#FFFFFF" points="15.191,29.853 9.733,28.972 9.774,28.797 15.232,29.677 "/>
<polygon fill="#FFFFFF" points="15.196,31.54 9.711,30.953 9.743,30.74 15.228,31.326 "/>
<polygon fill="#FFFFFF" points="15.202,33.225 9.692,32.932 9.712,32.683 15.222,32.976 "/>
<polygon fill="#FFFFFF" points="6.572,28.248 6.499,28.118 9.742,26.86 9.816,26.99 "/>
<polygon fill="#FFFFFF" points="6.599,29.914 6.526,29.746 9.744,28.801 9.816,28.97 "/>
<polygon fill="#FFFFFF" points="6.621,31.581 6.559,31.372 9.75,30.741 9.811,30.951 "/>
<polygon fill="#FFFFFF" points="6.635,33.246 6.598,32.998 9.763,32.684 9.799,32.931 "/>
<polygon fill="#FFFFFF" points="19.001,34.767 18.703,34.767 18.771,22.605 19.001,22.624 "/>
<g>
	<defs>
		<rect id="SVGID_1_" x="-31.832" y="65.315" width="189.839" height="139.216"/>
	</defs>
	<clipPath id="SVGID_2_">
		<use xlink:href="#SVGID_1_"  overflow="visible"/>
	</clipPath>
</g>
<path fill="#FFFFFF" d="M9.78,34.741c-0.077,0-0.14-0.05-0.14-0.114v-7.651c0-0.064,0.063-0.114,0.14-0.114
	c0.076,0,0.137,0.05,0.137,0.114v7.651C9.917,34.691,9.856,34.741,9.78,34.741"/>
<rect x="12.63" y="15.303" fill="#FFFFFF" width="0.277" height="12.203"/>
<path fill="#2A456C" d="M1.814,35.04c1.333,3.828,7.125,6.708,14.069,6.708c6.943,0,12.736-2.88,14.069-6.708H1.814z"/>
<path fill="#FFFFFF" d="M15.883,42.378c-7.171,0-13.202-2.932-14.665-7.131l-0.292-0.838h29.913l-0.291,0.838
	C29.085,39.446,23.055,42.378,15.883,42.378 M2.789,35.67c1.785,3.202,7.069,5.446,13.094,5.446c6.026,0,11.311-2.244,13.095-5.446
	H2.789z"/>
<rect x="45.772" y="35.473" fill="#E7E6E6" width="7.402" height="0.319"/>
<rect x="53.192" y="35.473" fill="#E7E6E6" width="4.061" height="0.319"/>
<rect x="57.112" y="35.477" fill="#E7E6E6" width="5.991" height="0.315"/>
<rect x="62.987" y="35.477" fill="#E7E6E6" width="3.396" height="0.315"/>
<polygon fill="#6391BA" points="56.667,35.67 53.274,35.67 53.274,26.643 56.667,28.108 "/>
<path fill="#FFFFFF" d="M56.772,35.776h-3.604v-9.292l3.604,1.555V35.776z M53.379,35.565h3.183v-7.388l-3.183-1.375V35.565z"/>
<polygon fill="#2A456C" points="53.273,35.67 47.396,35.67 47.396,27.881 53.273,26.643 "/>
<path fill="#FFFFFF" d="M53.378,35.776h-6.088v-7.98l6.088-1.282V35.776z M47.501,35.565h5.667v-8.792l-5.667,1.193V35.565z"/>
<polygon fill="#FFFFFF" points="47.42,28.072 53.297,26.724 53.25,26.564 47.373,27.913 "/>
<polygon fill="#FFFFFF" points="47.419,30.013 53.324,29.001 53.28,28.799 47.375,29.813 "/>
<polygon fill="#FFFFFF" points="47.415,31.954 53.348,31.28 53.313,31.035 47.379,31.71 "/>
<polygon fill="#FFFFFF" points="47.408,33.896 53.368,33.559 53.347,33.27 47.386,33.607 "/>
<polygon fill="#FFFFFF" points="56.743,28.167 56.823,28.017 53.314,26.57 53.234,26.718 "/>
<polygon fill="#FFFFFF" points="56.715,30.083 56.793,29.89 53.313,28.804 53.234,28.998 "/>
<polygon fill="#FFFFFF" points="56.691,32.001 56.758,31.761 53.305,31.036 53.24,31.277 "/>
<polygon fill="#FFFFFF" points="56.676,33.919 56.716,33.633 53.292,33.271 53.252,33.557 "/>
<path fill="#FFFFFF" d="M53.273,35.64c0.083,0,0.151-0.058,0.151-0.131v-8.807c0-0.073-0.068-0.131-0.151-0.131
	c-0.081,0-0.148,0.058-0.148,0.131v8.807C53.125,35.582,53.192,35.64,53.273,35.64"/>
<path fill="#2A456C" d="M41.154,35.04c1.333,3.828,7.125,6.708,14.069,6.708c6.944,0,12.735-2.88,14.069-6.708H41.154z"/>
<path fill="#FFFFFF" d="M55.223,42.378c-7.172,0-13.203-2.932-14.665-7.131l-0.292-0.838H70.18l-0.292,0.838
	C68.425,39.446,62.395,42.378,55.223,42.378 M42.128,35.67c1.784,3.202,7.069,5.446,13.095,5.446s11.309-2.244,13.094-5.446H42.128z
	"/>
<line fill="#FFFFFF" x1="15.775" y1="1.682" x2="55.222" y2="1.682"/>
<rect x="15.775" y="0.63" fill="#2A456C" width="39.446" height="2.103"/>
<line fill="#FFFFFF" x1="25.218" y1="51.35" x2="45.779" y2="51.35"/>
<rect x="25.218" y="50.088" fill="#2A456C" width="20.562" height="2.523"/>
<rect x="33.606" y="2.68" fill="#2A456C" width="3.786" height="47.396"/>
</svg>
