<?xml version="1.0" encoding="utf-8"?>
<!-- Generator: Adobe Illustrator 16.0.0, SVG Export Plug-In . SVG Version: 6.00 Build 0)  -->
<!DOCTYPE svg PUBLIC "-//W3C//DTD SVG 1.1//EN" "http://www.w3.org/Graphics/SVG/1.1/DTD/svg11.dtd">
<svg version="1.1" id="Слой_1" xmlns="http://www.w3.org/2000/svg" xmlns:xlink="http://www.w3.org/1999/xlink" x="0px" y="0px"
	 width="272.833px" height="238.667px" viewBox="0 0 272.833 238.667" enable-background="new 0 0 272.833 238.667"
	 xml:space="preserve">
<g>
	<g>
		<path fill="#2A456C" d="M234.625,136.638h-81.781l40.89-103.343L234.625,136.638z M155.785,134.638h75.898l-37.95-95.907
			L155.785,134.638z"/>
	</g>
	<g>
		<polygon fill="#2A456C" points="204.493,133.928 183.081,133.928 183.081,81.776 204.493,73.1 		"/>
	</g>
	<g>
		<path fill="#FFFFFF" d="M204.801,134.237h-22.03v-52.67l22.03-8.927V134.237z M183.391,133.618h20.791V73.561l-20.791,8.423
			V133.618z"/>
	</g>
	<g>
		<polygon fill="#6391BA" points="214.949,133.928 204.606,133.928 204.606,72.655 214.949,82.802 		"/>
	</g>
	<g>
		<path fill="#FFFFFF" d="M215.257,134.237h-10.962v-62.32l10.962,10.755V134.237z M204.917,133.618h9.721V82.932l-9.721-9.539
			V133.618z"/>
	</g>
	<g>
		<polygon fill="#FFFFFF" points="183.082,80.563 183.082,80.642 183.254,80.842 204.493,72.246 204.493,71.889 		"/>
	</g>
	<g>
		<polygon fill="#FFFFFF" points="183.082,86.474 183.082,87.052 204.493,79.353 204.493,78.771 		"/>
	</g>
	<g>
		<polygon fill="#FFFFFF" points="183.082,91.387 183.082,92.001 204.493,85.242 204.493,84.625 		"/>
	</g>
	<g>
		<polygon fill="#FFFFFF" points="183.082,96.325 183.082,96.977 204.493,91.132 204.493,90.482 		"/>
	</g>
	<g>
		<polygon fill="#FFFFFF" points="183.082,101.286 183.082,101.97 204.493,97.023 204.493,96.338 		"/>
	</g>
	<g>
		<polygon fill="#FFFFFF" points="183.082,106.268 183.082,106.99 204.493,102.916 204.493,102.193 		"/>
	</g>
	<g>
		<polygon fill="#FFFFFF" points="183.082,111.27 183.082,112.029 204.493,108.807 204.493,108.048 		"/>
	</g>
	<g>
		<polygon fill="#FFFFFF" points="183.082,116.292 183.082,117.089 204.493,114.703 204.493,113.905 		"/>
	</g>
	<g>
		<polygon fill="#FFFFFF" points="183.082,121.331 183.082,122.169 204.493,120.598 204.493,119.758 		"/>
	</g>
	<g>
		<polygon fill="#FFFFFF" points="183.082,126.388 183.082,127.272 204.493,126.496 204.493,125.612 		"/>
	</g>
	<g>
		<rect x="183.082" y="131.462" fill="#FFFFFF" width="21.411" height="0.928"/>
	</g>
	<g>
		<polygon fill="#FFFFFF" points="204.606,72.658 204.606,73.106 214.74,82.957 214.949,82.804 214.949,82.801 204.606,72.656 		"/>
	</g>
	<g>
		<polygon fill="#FFFFFF" points="204.606,78.608 204.606,79.008 214.725,87.893 214.949,87.715 214.949,87.346 204.81,78.447 		"/>
	</g>
	<g>
		<polygon fill="#FFFFFF" points="204.606,84.563 204.606,84.909 214.719,92.832 214.949,92.627 214.949,92.247 204.852,84.341 		
			"/>
	</g>
	<g>
		<polygon fill="#FFFFFF" points="204.606,90.527 204.606,90.818 214.719,97.773 214.949,97.539 214.949,97.148 204.89,90.233 		"/>
	</g>
	<g>
		<polygon fill="#FFFFFF" points="204.606,96.503 204.606,96.733 214.725,102.718 214.949,102.452 214.949,102.056 204.923,96.126 
					"/>
	</g>
	<g>
		<polygon fill="#FFFFFF" points="204.606,102.51 204.606,102.649 214.737,107.665 214.949,107.365 214.949,106.962 
			204.955,102.013 		"/>
	</g>
	<g>
		<polygon fill="#FFFFFF" points="204.606,108.549 204.606,108.575 214.759,112.615 214.949,112.279 214.949,111.868 
			204.97,107.901 		"/>
	</g>
	<g>
		<polygon fill="#FFFFFF" points="204.659,114.53 214.79,117.564 214.949,117.188 214.949,116.77 204.976,113.787 		"/>
	</g>
	<g>
		<polygon fill="#FFFFFF" points="204.742,120.488 214.833,122.508 214.949,122.099 214.949,121.674 204.97,119.676 		"/>
	</g>
	<g>
		<polygon fill="#FFFFFF" points="204.833,126.444 214.883,127.452 214.949,127.011 214.949,126.573 204.956,125.567 		"/>
	</g>
	<g>
		<rect x="204.936" y="131.462" fill="#FFFFFF" width="10.01" height="0.928"/>
	</g>
	<g>
		<rect x="204.164" y="73.101" fill="#FFFFFF" width="0.883" height="61.006"/>
	</g>
	<g>
		<path fill="#2A456C" d="M119.144,136.639H36.878L78.01,32.687L119.144,136.639z M39.821,134.639h76.38L78.01,38.123
			L39.821,134.639z"/>
	</g>
	<g>
		<rect x="89.628" y="133.069" fill="#E7E6E6" width="17.658" height="0.943"/>
	</g>
	<g>
		<rect x="77.607" y="133.069" fill="#E7E6E6" width="11.97" height="0.943"/>
	</g>
	<g>
		<rect x="60.36" y="133.083" fill="#E7E6E6" width="17.663" height="0.93"/>
	</g>
	<g>
		<rect x="50.692" y="133.083" fill="#FFFFFF" width="10.01" height="0.93"/>
	</g>
	<g>
		<polygon fill="#6391BA" points="69.252,131.484 89.043,131.484 89.043,84.054 69.252,76.166 		"/>
	</g>
	<g>
		<path fill="#FFFFFF" d="M89.353,131.794h-20.41V75.709l20.41,8.136V131.794z M69.563,131.174h19.171V84.265l-19.171-7.643V131.174
			z"/>
	</g>
	<g>
		<polygon fill="#2A456C" points="59.588,131.484 69.148,131.484 69.148,75.761 59.588,84.989 		"/>
	</g>
	<g>
		<path fill="#FFFFFF" d="M69.458,131.794h-10.18V84.857l10.18-9.827V131.794z M59.898,131.174h8.94V76.492l-8.94,8.629V131.174z"/>
	</g>
	<g>
		<polygon fill="#FFFFFF" points="88.881,84.308 68.712,76.277 69.035,75.916 89.203,83.945 		"/>
	</g>
	<g>
		<polygon fill="#FFFFFF" points="89.132,88.885 68.71,81.66 69.039,81.248 89.459,88.475 		"/>
	</g>
	<g>
		<polygon fill="#FFFFFF" points="89.39,93.462 68.719,87.039 69.035,86.58 89.709,93.004 		"/>
	</g>
	<g>
		<polygon fill="#FFFFFF" points="89.647,98.041 68.721,92.421 69.028,91.912 89.956,97.532 		"/>
	</g>
	<g>
		<polygon fill="#FFFFFF" points="89.915,102.621 68.731,97.803 69.018,97.244 90.198,102.062 		"/>
	</g>
	<g>
		<polygon fill="#FFFFFF" points="90.182,107.198 68.745,103.185 69.003,102.575 90.438,106.59 		"/>
	</g>
	<g>
		<polygon fill="#FFFFFF" points="90.455,111.776 68.763,108.567 68.982,107.906 90.672,111.12 		"/>
	</g>
	<g>
		<polygon fill="#ECECED" points="90.729,116.354 68.788,113.948 68.962,113.239 90.905,115.648 		"/>
	</g>
	<g>
		<polygon fill="#EBEAEB" points="91.009,120.933 68.812,119.328 68.935,118.573 91.13,120.178 		"/>
	</g>
	<g>
		<polygon fill="#E8E8E9" points="91.295,125.51 68.841,124.708 68.906,123.907 91.357,124.708 		"/>
	</g>
	<g>
		<rect x="68.873" y="129.242" fill="#E7E6E6" width="22.705" height="0.843"/>
	</g>
	<g>
		<polygon fill="#FFFFFF" points="59.78,85.128 59.393,84.85 69.005,75.662 69.392,75.938 		"/>
	</g>
	<g>
		<polygon fill="#FFFFFF" points="59.794,89.619 59.385,89.297 68.96,81.027 69.369,81.348 		"/>
	</g>
	<g>
		<polygon fill="#FFFFFF" points="59.8,94.109 59.378,93.739 68.919,86.387 69.337,86.757 		"/>
	</g>
	<g>
		<polygon fill="#FFFFFF" points="59.8,98.604 59.378,98.179 68.883,91.748 69.303,92.173 		"/>
	</g>
	<g>
		<polygon fill="#FFFFFF" points="59.794,103.099 59.38,102.617 68.853,97.106 69.267,97.588 		"/>
	</g>
	<g>
		<polygon fill="#FFFFFF" points="59.782,107.598 59.395,107.056 68.824,102.458 69.216,103.004 		"/>
	</g>
	<g>
		<polygon fill="#FFFFFF" points="59.763,112.099 59.412,111.489 68.81,107.811 69.158,108.423 		"/>
	</g>
	<g>
		<polygon fill="#ECECED" points="59.731,116.599 59.443,115.923 68.805,113.165 69.098,113.84 		"/>
	</g>
	<g>
		<polygon fill="#EBEAEB" points="59.695,121.097 59.482,120.359 68.81,118.522 69.02,119.26 		"/>
	</g>
	<g>
		<polygon fill="#E8E8E9" points="59.646,125.593 59.527,124.796 68.822,123.879 68.938,124.675 		"/>
	</g>
	<g>
		<rect x="59.588" y="129.242" fill="#E7E6E6" width="9.255" height="0.843"/>
	</g>
	<g>
		<polygon fill="#6391BA" points="87.462,133.542 107.25,133.542 107.25,103.868 87.462,97.942 		"/>
	</g>
	<g>
		<path fill="#FFFFFF" d="M107.56,133.852H87.152V97.526l20.408,6.112V133.852z M87.772,133.232h19.169v-29.133l-19.169-5.74
			V133.232z"/>
	</g>
	<g>
		<polygon fill="#2A456C" points="76.344,133.542 87.459,133.542 87.205,97.705 76.344,104.032 		"/>
	</g>
	<g>
		<path fill="#FFFFFF" d="M87.772,133.852H76.034v-29.998l11.478-6.686L87.772,133.852z M76.654,133.232h10.493L86.9,98.241
			l-10.247,5.968V133.232z"/>
	</g>
	<g>
		<polygon fill="#FFFFFF" points="107.122,103.882 86.961,98.098 87.205,97.705 107.372,103.491 		"/>
	</g>
	<g>
		<polygon fill="#FFFFFF" points="107.122,108.897 86.961,104.076 87.2,103.604 107.372,108.425 		"/>
	</g>
	<g>
		<polygon fill="#FFFFFF" points="107.134,113.911 86.968,110.057 87.196,109.506 107.364,113.365 		"/>
	</g>
	<g>
		<polygon fill="#FFFFFF" points="107.147,118.929 86.98,116.036 87.178,115.408 107.347,118.3 		"/>
	</g>
	<g>
		<polygon fill="#FFFFFF" points="107.175,123.942 87.005,122.016 87.159,121.305 107.322,123.237 		"/>
	</g>
	<g>
		<polygon fill="#FFFFFF" points="107.203,128.957 87.039,127.994 87.125,127.21 107.286,128.176 		"/>
	</g>
	<g>
		<polygon fill="#FFFFFF" points="76.217,104.46 75.723,104.15 86.786,97.747 87.276,98.055 		"/>
	</g>
	<g>
		<polygon fill="#FFFFFF" points="76.227,109.373 75.708,108.983 86.776,103.645 87.295,104.035 		"/>
	</g>
	<g>
		<polygon fill="#FFFFFF" points="76.227,114.293 75.714,113.809 86.776,109.541 87.285,110.022 		"/>
	</g>
	<g>
		<polygon fill="#FFFFFF" points="76.197,119.213 75.74,118.635 86.804,115.432 87.263,116.01 		"/>
	</g>
	<g>
		<polygon fill="#FFFFFF" points="76.151,124.135 75.79,123.454 86.854,121.32 87.211,122 		"/>
	</g>
	<g>
		<polygon fill="#FFFFFF" points="76.07,129.057 75.865,128.281 86.929,127.215 87.139,127.99 		"/>
	</g>
	<g>
		<polygon fill="#6391BA" points="60.337,133.545 76.353,133.545 76.353,113.596 60.337,110.427 		"/>
	</g>
	<g>
		<path fill="#FFFFFF" d="M76.662,133.857H60.028v-23.808l16.634,3.293V133.857z M60.648,133.237h15.395v-19.386l-15.395-3.046
			V133.237z"/>
	</g>
	<g>
		<polygon fill="#2A456C" points="51.087,133.545 60.337,133.545 60.337,110.427 51.087,114.177 		"/>
	</g>
	<g>
		<path fill="#FFFFFF" d="M60.646,133.857h-9.869v-19.89l9.869-4.002V133.857z M51.397,133.237h8.629v-22.35l-8.629,3.498V133.237z"
			/>
	</g>
	<g>
		<polygon fill="#FFFFFF" points="76.284,114.084 60.271,110.632 60.399,110.221 76.415,113.678 		"/>
	</g>
	<g>
		<polygon fill="#FFFFFF" points="76.29,119.057 60.199,116.463 60.319,115.947 76.41,118.541 		"/>
	</g>
	<g>
		<polygon fill="#FFFFFF" points="76.301,124.029 60.135,122.3 60.229,121.674 76.397,123.4 		"/>
	</g>
	<g>
		<polygon fill="#FFFFFF" points="76.318,129 60.078,128.137 60.135,127.4 76.38,128.263 		"/>
	</g>
	<g>
		<polygon fill="#FFFFFF" points="50.88,114.329 50.667,113.943 60.227,110.235 60.444,110.618 		"/>
	</g>
	<g>
		<polygon fill="#FFFFFF" points="50.961,119.237 50.746,118.744 60.229,115.958 60.443,116.457 		"/>
	</g>
	<g>
		<polygon fill="#FFFFFF" points="51.024,124.15 50.839,123.534 60.25,121.676 60.429,122.293 		"/>
	</g>
	<g>
		<polygon fill="#FFFFFF" points="51.066,129.061 50.956,128.328 60.286,127.4 60.396,128.132 		"/>
	</g>
	<g>
		<polygon fill="#FFFFFF" points="86.641,133.542 87.52,133.542 87.52,97.747 86.841,97.692 		"/>
	</g>
	<g>
		<g>
			<path fill="#FFFFFF" d="M60.441,133.469c-0.226,0-0.412-0.15-0.412-0.336v-22.558c0-0.187,0.186-0.335,0.412-0.335
				c0.225,0,0.404,0.148,0.404,0.335v22.558C60.845,133.319,60.666,133.469,60.441,133.469"/>
		</g>
		<g>
			<rect x="68.843" y="76.166" fill="#FFFFFF" width="0.819" height="35.976"/>
		</g>
		<g>
			<path fill="#2A456C" d="M36.96,134.348c3.93,11.281,21.003,19.773,41.473,19.773c20.468,0,37.545-8.492,41.472-19.773H36.96z"/>
		</g>
		<g>
			<rect x="171.018" y="133.322" fill="#E7E6E6" width="17.344" height="0.941"/>
		</g>
		<g>
			<rect x="188.414" y="133.322" fill="#FFFFFF" width="11.971" height="0.941"/>
		</g>
		<g>
			<rect x="199.968" y="133.334" fill="#FFFFFF" width="15.289" height="0.929"/>
		</g>
		<g>
			<polygon fill="#6391BA" points="198.659,133.905 188.655,133.905 188.655,107.294 198.659,111.612 			"/>
		</g>
		<g>
			<path fill="#FFFFFF" d="M198.969,134.213h-10.624v-27.391l10.624,4.584V134.213z M188.965,133.594h9.383v-21.777l-9.383-4.051
				V133.594z"/>
		</g>
		<g>
			<polygon fill="#2A456C" points="188.654,133.905 171.327,133.905 171.327,110.943 188.654,107.294 			"/>
		</g>
		<g>
			<path fill="#FFFFFF" d="M188.962,134.213h-17.944v-23.521l17.944-3.78V134.213z M171.637,133.594h16.705v-25.918l-16.705,3.519
				V133.594z"/>
		</g>
		<g>
			<polygon fill="#FFFFFF" points="171.4,111.505 188.723,107.53 188.584,107.059 171.259,111.038 			"/>
		</g>
		<g>
			<polygon fill="#FFFFFF" points="171.395,117.227 188.803,114.245 188.671,113.65 171.264,116.633 			"/>
		</g>
		<g>
			<polygon fill="#FFFFFF" points="171.383,122.95 188.874,120.96 188.768,120.239 171.279,122.227 			"/>
		</g>
		<g>
			<polygon fill="#FFFFFF" points="171.364,128.669 188.933,127.677 188.872,126.83 171.297,127.822 			"/>
		</g>
		<g>
			<polygon fill="#FFFFFF" points="198.883,111.785 199.115,111.343 188.775,107.075 188.537,107.516 			"/>
		</g>
		<g>
			<polygon fill="#FFFFFF" points="198.799,117.435 199.031,116.865 188.768,113.66 188.537,114.234 			"/>
		</g>
		<g>
			<polygon fill="#FFFFFF" points="198.728,123.089 198.927,122.38 188.748,120.245 188.553,120.953 			"/>
		</g>
		<g>
			<polygon fill="#FFFFFF" points="198.682,128.742 198.801,127.897 188.708,126.831 188.59,127.673 			"/>
		</g>
		<g>
			<path fill="#FFFFFF" d="M188.654,133.815c0.245,0,0.445-0.173,0.445-0.388v-25.959c0-0.214-0.2-0.387-0.445-0.387
				c-0.24,0-0.44,0.172-0.44,0.387v25.959C188.213,133.642,188.414,133.815,188.654,133.815"/>
		</g>
		<g>
			<path fill="#2A456C" d="M152.929,134.348c3.927,11.281,21.004,19.773,41.473,19.773c20.468,0,37.542-8.492,41.472-19.773H152.929
				z"/>
		</g>
		<g>
			<line fill="#FFFFFF" x1="78.115" y1="36.014" x2="194.396" y2="36.014"/>
		</g>
		<g>
			<rect x="78.115" y="33.514" fill="#2A456C" width="116.281" height="5"/>
		</g>
		<g>
			<line fill="#FFFFFF" x1="105.949" y1="165.948" x2="166.562" y2="165.948"/>
		</g>
		<g>
			<rect x="105.949" y="162.948" fill="#2A456C" width="60.613" height="6"/>
		</g>
		<g>
			<rect x="131.757" y="38.958" fill="#2A456C" width="9" height="123.234"/>
		</g>
	</g>
	<g>
		<path fill="#2A456C" d="M61.903,181.321h11.164v2.995h-6.943v3.268h6.558v2.995h-6.558v3.585h7.193v2.995H61.903V181.321z"/>
		<path fill="#2A456C" d="M75.538,181.321h4.22v15.838h-4.22V181.321z"/>
		<path fill="#2A456C" d="M85.089,184.453h-3.903v-3.132h12.026v3.132H89.31v12.706h-4.22V184.453z"/>
		<path fill="#2A456C" d="M97.454,181.321h5.173l6.104,15.838h-4.629l-1.18-3.381h-5.945l-1.248,3.381h-4.288L97.454,181.321z
			 M100.04,184.588h-0.045l-2.042,6.194h3.971L100.04,184.588z"/>
		<path fill="#2A456C" d="M109.885,181.321h5.377l5.355,10.755h0.045l-0.068-10.755h3.857v15.838h-5.241l-5.537-10.823h-0.045
			l0.136,10.823h-3.88V181.321z"/>
		<path fill="#2A456C" d="M133.093,181.321h5.037c4.833,0,7.103,1.634,7.103,5.196c0,3.199-2.337,5.105-6.285,5.105h-1.634v5.536
			h-4.221V181.321z M137.314,188.627h1.089c1.452,0,2.609-0.522,2.609-2.179c0-1.61-1.157-2.133-2.609-2.133h-1.089V188.627z"/>
		<path fill="#2A456C" d="M146.501,181.321h11.163v2.995h-6.942v3.268h6.557v2.995h-6.557v3.585h7.192v2.995h-11.413V181.321z"/>
		<path fill="#2A456C" d="M159.818,181.321h7.533c2.813,0,5.105,1.271,5.105,3.994c0,2.109-0.999,3.517-3.041,3.993v0.045
			c1.361,0.363,1.452,1.566,2.246,3.494l1.543,4.312h-4.401l-0.908-2.859c-0.861-2.723-1.406-3.403-2.972-3.403h-0.885v6.263h-4.221
			V181.321z M164.039,187.901h1.111c1.361,0,3.086-0.045,3.086-1.838c0-1.475-1.475-1.747-3.086-1.747h-1.111V187.901z"/>
		<path fill="#2A456C" d="M174.405,181.321h11.163v2.995h-6.942v3.268h6.557v2.995h-6.557v3.585h7.192v2.995h-11.413V181.321z"/>
		<path fill="#2A456C" d="M190.558,184.453h-3.902v-3.132h12.025v3.132h-3.902v12.706h-4.221V184.453z"/>
		<path fill="#2A456C" d="M211.364,184.679l-7.761,9.349h7.806v3.131H199.02V193.8l7.533-9.348h-7.329v-3.132h12.14V184.679z"/>
	</g>
</g>
</svg>
